<svg width="416" height="448" viewBox="0 0 416 448" fill="none" xmlns="http://www.w3.org/2000/svg">
<path d="M212 424C212 421.333 210.667 420 208 420C198.167 420 189.708 416.458 182.625 409.375C175.542 402.292 172 393.833 172 384C172 381.333 170.667 380 168 380C165.333 380 164 381.333 164 384C164 396.167 168.292 406.542 176.875 415.125C185.458 423.708 195.833 428 208 428C210.667 428 212 426.667 212 424ZM416 352C416 360.667 412.833 368.167 406.5 374.5C400.167 380.833 392.667 384 384 384H272C272 401.667 265.75 416.75 253.25 429.25C240.75 441.75 225.667 448 208 448C190.333 448 175.25 441.75 162.75 429.25C150.25 416.75 144 401.667 144 384H32C23.3333 384 15.8333 380.833 9.5 374.5C3.16667 368.167 0 360.667 0 352C8.33333 345 15.9167 337.667 22.75 330C29.5833 322.333 36.6667 312.375 44 300.125C51.3333 287.875 57.5417 274.667 62.625 260.5C67.7083 246.333 71.875 229.167 75.125 209C78.375 188.833 80 167.167 80 144C80 118.667 89.75 95.125 109.25 73.375C128.75 51.625 154.333 38.4167 186 33.75C184.667 30.5833 184 27.3333 184 24C184 17.3333 186.333 11.6667 191 7C195.667 2.33333 201.333 0 208 0C214.667 0 220.333 2.33333 225 7C229.667 11.6667 232 17.3333 232 24C232 27.3333 231.333 30.5833 230 33.75C261.667 38.4167 287.25 51.625 306.75 73.375C326.25 95.125 336 118.667 336 144C336 167.167 337.625 188.833 340.875 209C344.125 229.167 348.292 246.333 353.375 260.5C358.458 274.667 364.667 287.875 372 300.125C379.333 312.375 386.417 322.333 393.25 330C400.083 337.667 407.667 345 416 352Z" fill="black"/>
</svg>
