<svg width="384" height="384" viewBox="0 0 384 384" fill="none" xmlns="http://www.w3.org/2000/svg">
<path d="M256 192C256 174.333 249.75 159.25 237.25 146.75C224.75 134.25 209.667 128 192 128C174.333 128 159.25 134.25 146.75 146.75C134.25 159.25 128 174.333 128 192C128 209.667 134.25 224.75 146.75 237.25C159.25 249.75 174.333 256 192 256C209.667 256 224.75 249.75 237.25 237.25C249.75 224.75 256 209.667 256 192ZM384 164.75V220.25C384 222.25 383.333 224.167 382 226C380.667 227.833 379 228.917 377 229.25L330.75 236.25C327.583 245.25 324.333 252.833 321 259C326.833 267.333 335.75 278.833 347.75 293.5C349.417 295.5 350.25 297.583 350.25 299.75C350.25 301.917 349.5 303.833 348 305.5C343.5 311.667 335.25 320.667 323.25 332.5C311.25 344.333 303.417 350.25 299.75 350.25C297.75 350.25 295.583 349.5 293.25 348L258.75 321C251.417 324.833 243.833 328 236 330.5C233.333 353.167 230.917 368.667 228.75 377C227.583 381.667 224.583 384 219.75 384H164.25C161.917 384 159.875 383.292 158.125 381.875C156.375 380.458 155.417 378.667 155.25 376.5L148.25 330.5C140.083 327.833 132.583 324.75 125.75 321.25L90.5 348C88.8333 349.5 86.75 350.25 84.25 350.25C81.9167 350.25 79.8333 349.333 78 347.5C57 328.5 43.25 314.5 36.75 305.5C35.5833 303.833 35 301.917 35 299.75C35 297.75 35.6667 295.833 37 294C39.5 290.5 43.75 284.958 49.75 277.375C55.75 269.792 60.25 263.917 63.25 259.75C58.75 251.417 55.3333 243.167 53 235L7.25 228.25C5.08333 227.917 3.33333 226.875 2 225.125C0.666667 223.375 0 221.417 0 219.25V163.75C0 161.75 0.666667 159.833 2 158C3.33333 156.167 4.91667 155.083 6.75 154.75L53.25 147.75C55.5833 140.083 58.8333 132.417 63 124.75C56.3333 115.25 47.4167 103.75 36.25 90.25C34.5833 88.25 33.75 86.25 33.75 84.25C33.75 82.5833 34.5 80.6667 36 78.5C40.3333 72.5 48.5417 63.5417 60.625 51.625C72.7083 39.7083 80.5833 33.75 84.25 33.75C86.4167 33.75 88.5833 34.5833 90.75 36.25L125.25 63C132.583 59.1667 140.167 56 148 53.5C150.667 30.8333 153.083 15.3333 155.25 7C156.417 2.33333 159.417 0 164.25 0H219.75C222.083 0 224.125 0.708333 225.875 2.125C227.625 3.54167 228.583 5.33333 228.75 7.5L235.75 53.5C243.917 56.1667 251.417 59.25 258.25 62.75L293.75 36C295.25 34.5 297.25 33.75 299.75 33.75C301.917 33.75 304 34.5833 306 36.25C327.5 56.0833 341.25 70.25 347.25 78.75C348.417 80.0833 349 81.9167 349 84.25C349 86.25 348.333 88.1667 347 90C344.5 93.5 340.25 99.0417 334.25 106.625C328.25 114.208 323.75 120.083 320.75 124.25C325.083 132.583 328.5 140.75 331 148.75L376.75 155.75C378.917 156.083 380.667 157.125 382 158.875C383.333 160.625 384 162.583 384 164.75Z" fill="black"/>
</svg>
