<svg width="448" height="352" viewBox="0 0 448 352" fill="none" xmlns="http://www.w3.org/2000/svg">
<path d="M416 312V120C410.667 126 404.917 131.5 398.75 136.5C354.083 170.833 318.583 199 292.25 221C283.75 228.167 276.833 233.75 271.5 237.75C266.167 241.75 258.958 245.792 249.875 249.875C240.792 253.958 232.25 256 224.25 256H223.75C215.75 256 207.208 253.958 198.125 249.875C189.042 245.792 181.833 241.75 176.5 237.75C171.167 233.75 164.25 228.167 155.75 221C129.417 199 93.9167 170.833 49.25 136.5C43.0833 131.5 37.3333 126 32 120V312C32 314.167 32.7917 316.042 34.375 317.625C35.9583 319.208 37.8333 320 40 320H408C410.167 320 412.042 319.208 413.625 317.625C415.208 316.042 416 314.167 416 312ZM416 49.25V43.125C416 43.125 415.958 42.0417 415.875 39.875C415.792 37.7083 415.542 36.6667 415.125 36.75C414.708 36.8333 414.25 36.0833 413.75 34.5C413.25 32.9167 412.5 32.2917 411.5 32.625C410.5 32.9583 409.333 32.75 408 32H40C37.8333 32 35.9583 32.7917 34.375 34.375C32.7917 35.9583 32 37.8333 32 40C32 68 44.25 91.6667 68.75 111C100.917 136.333 134.333 162.75 169 190.25C170 191.083 172.917 193.542 177.75 197.625C182.583 201.708 186.417 204.833 189.25 207C192.083 209.167 195.792 211.792 200.375 214.875C204.958 217.958 209.167 220.25 213 221.75C216.833 223.25 220.417 224 223.75 224H224.25C227.583 224 231.167 223.25 235 221.75C238.833 220.25 243.042 217.958 247.625 214.875C252.208 211.792 255.917 209.167 258.75 207C261.583 204.833 265.417 201.708 270.25 197.625C275.083 193.542 278 191.083 279 190.25C313.667 162.75 347.083 136.333 379.25 111C388.25 103.833 396.625 94.2083 404.375 82.125C412.125 70.0417 416 59.0833 416 49.25ZM448 40V312C448 323 444.083 332.417 436.25 340.25C428.417 348.083 419 352 408 352H40C29 352 19.5833 348.083 11.75 340.25C3.91667 332.417 0 323 0 312V40C0 29 3.91667 19.5833 11.75 11.75C19.5833 3.91667 29 0 40 0H408C419 0 428.417 3.91667 436.25 11.75C444.083 19.5833 448 29 448 40Z" fill="black"/>
</svg>
