<svg width="638" height="636" viewBox="0 0 638 636" fill="none" xmlns="http://www.w3.org/2000/svg">
<path d="M637.5 318C637.5 400 610 471.5 555 532.5C500 593.5 432 628 351 636V571.5C414 563.5 467 535.25 510 486.75C553 438.25 574.5 382 574.5 318C574.5 254 553 197.75 510 149.25C467 100.75 414 72.5 351 64.5V0C432 8 500 42.5 555 103.5C610 164.5 637.5 236 637.5 318ZM115.5 565.5L160.5 520.5C197.5 548.5 239.5 565.5 286.5 571.5V636C223.5 630 166.5 606.5 115.5 565.5ZM64.5 349.5C70.5 396.5 87.5 438 115.5 474L70.5 520.5C29.5 469.5 6 412.5 0 349.5H64.5ZM115.5 160.5C87.5 197.5 70.5 239.5 64.5 286.5H0C6 223.5 29.5 166.5 70.5 115.5L115.5 160.5ZM286.5 64.5C239.5 70.5 197.5 87.5 160.5 115.5L115.5 70.5C166.5 29.5 223.5 6 286.5 0V64.5ZM351 247.5L445.5 318C382.5 365 318.5 413 253.5 462L351 247.5Z" fill="black"/>
</svg>
